<svg xmlns="http://www.w3.org/2000/svg" width="13" height="24" viewBox="0 0 13 24">
  <g id="facebook-logo_2_" data-name="facebook-logo (2)" transform="translate(-22.077)">
    <path id="Path_6959" data-name="Path 6959" d="M34.587,0,31.469,0C27.966,0,25.7,2.318,25.7,5.906V8.63H22.567a.49.49,0,0,0-.49.49v3.946a.49.49,0,0,0,.49.489H25.7v9.956a.49.49,0,0,0,.49.489h4.09a.49.49,0,0,0,.49-.489V13.554h3.666a.49.49,0,0,0,.49-.489V9.119a.49.49,0,0,0-.491-.49H30.773V6.321c0-1.11.265-1.673,1.713-1.673h2.1a.49.49,0,0,0,.49-.489V.494A.49.49,0,0,0,34.587,0Z" transform="translate(0)"/>
  </g>
</svg>
