<svg id="instagram_4_" data-name="instagram (4)" xmlns="http://www.w3.org/2000/svg" width="24" height="24" viewBox="0 0 24 24">
  <path id="Path_6967" data-name="Path 6967" d="M20.484,0H3.516A3.52,3.52,0,0,0,0,3.516V20.484A3.52,3.52,0,0,0,3.516,24H20.484A3.52,3.52,0,0,0,24,20.484V3.516A3.52,3.52,0,0,0,20.484,0ZM12.047,18.281a6.328,6.328,0,1,1,6.328-6.328A6.335,6.335,0,0,1,12.047,18.281Zm7.031-11.25a2.109,2.109,0,1,1,2.109-2.109A2.112,2.112,0,0,1,19.078,7.031Zm0,0"/>
  <path id="Path_6968" data-name="Path 6968" d="M392.7,90a.7.7,0,1,0,.7.7A.7.7,0,0,0,392.7,90Zm0,0" transform="translate(-373.625 -85.781)"/>
  <path id="Path_6969" data-name="Path 6969" d="M156.922,150a4.922,4.922,0,1,0,4.922,4.922A4.928,4.928,0,0,0,156.922,150Zm0,0" transform="translate(-144.875 -142.969)"/>
</svg>
 