<svg xmlns="http://www.w3.org/2000/svg" width="336" height="33" viewBox="0 0 336 33">
  <g id="Group_5236" data-name="Group 5236" transform="translate(-1296 -698)">
    <g id="Group_5222" data-name="Group 5222" transform="translate(3 -313)">
      <rect id="Rectangle_2378" data-name="Rectangle 2378" width="51" height="33" rx="2" transform="translate(1350 1011)" fill="#0072ce"/>
      <path id="Path_6909" data-name="Path 6909" d="M22.226,113.966,18.235,122.8h4.777l.592-1.408h1.354l.592,1.408h5.258v-1.075l.469,1.075H34l.469-1.1v1.1H45.4l1.33-1.371,1.245,1.371,5.617.011-4-4.4,4-4.44h-5.53l-1.294,1.346-1.206-1.346h-11.9l-1.022,2.279L31.6,113.966H26.832V115l-.53-1.038Zm.924,1.254h2.329l2.647,5.988V115.22h2.551l2.044,4.294,1.884-4.294h2.538v6.337H35.6l-.013-4.966-2.252,4.966H31.953l-2.264-4.966v4.966H26.512l-.6-1.421H22.655l-.6,1.419h-1.7Zm15.406,0h6.28l1.921,2.075,1.983-2.075h1.921L47.742,118.4l2.918,3.148H48.653l-1.921-2.1-1.993,2.1H38.556V115.22Zm-14.274,1.072-1.072,2.531h2.143Zm15.824.24v1.157h3.426v1.289H40.107v1.263H43.95l1.786-1.86-1.71-1.85H40.107Z" transform="translate(1339.765 909.034)" fill="#fff"/>
    </g>
    <g id="Group_5223" data-name="Group 5223" transform="translate(6 -313)">
      <rect id="Rectangle_2379" data-name="Rectangle 2379" width="51" height="33" rx="2" transform="translate(1290 1011)" fill="#008cdd"/>
      <g id="stripe-logo" transform="translate(1299 1007.124)">
        <g id="Group_5178" data-name="Group 5178" transform="translate(15.997 17.429)">
          <g id="Group_5177" data-name="Group 5177" transform="translate(0 0)">
            <path id="Path_6910" data-name="Path 6910" d="M22.694,18.917v7.33h2.6v-7.33Z" transform="translate(-22.694 -18.917)" fill="#fff"/>
          </g>
        </g>
        <g id="Group_5180" data-name="Group 5180" transform="translate(10.907 17.271)">
          <g id="Group_5179" data-name="Group 5179" transform="translate(0 0)">
            <path id="Path_6911" data-name="Path 6911" d="M19.707,18.776a1.4,1.4,0,0,0-1.791.743c-.1-.172-.2-.334-.278-.506a.277.277,0,0,0-.3-.178c-.566.009-1.131,0-1.7,0a1.323,1.323,0,0,0-.173.018v7.317h2.613V21.629c0-.537.074-.623.619-.694a1.946,1.946,0,0,1,.4-.015c.261.025.52.063.812.1,0-.666-.006-1.318,0-1.97C19.928,18.877,19.861,18.817,19.707,18.776Z" transform="translate(-15.473 -18.692)" fill="#fff"/>
          </g>
        </g>
        <g id="Group_5182" data-name="Group 5182" transform="translate(0 17.281)">
          <g id="Group_5181" data-name="Group 5181">
            <path id="Path_6912" data-name="Path 6912" d="M4.253,22.116a6.8,6.8,0,0,0-.831-.462,4.534,4.534,0,0,1-.65-.346.5.5,0,0,1-.168-.4.463.463,0,0,1,.307-.268,1.381,1.381,0,0,1,.543-.007c.439.066.874.154,1.327.237,0-.534-.007-1.074,0-1.615a.234.234,0,0,0-.195-.268,5.28,5.28,0,0,0-2.708-.18A2.085,2.085,0,0,0,.118,20.318c-.054.188-.079.386-.118.577v.43a1.218,1.218,0,0,1,.044.159,1.92,1.92,0,0,0,.819,1.372,7.619,7.619,0,0,0,.768.43c.223.121.457.226.671.36a.349.349,0,0,1,.156.457.549.549,0,0,1-.348.266,2.555,2.555,0,0,1-.758-.015c-.4-.061-.8-.163-1.22-.25,0,.6-.006,1.185.008,1.764,0,.058.1.147.176.166a6.9,6.9,0,0,0,2.524.268,2.173,2.173,0,0,0,2.206-2.13A2.082,2.082,0,0,0,4.253,22.116Z" transform="translate(0 -18.706)" fill="#fff"/>
          </g>
        </g>
        <g id="Group_5184" data-name="Group 5184" transform="translate(5.363 15.206)">
          <g id="Group_5183" data-name="Group 5183">
            <path id="Path_6913" data-name="Path 6913" d="M11.195,23.046a2.077,2.077,0,0,1-.008-.239q0-1.457,0-2.915c0-.075.008-.152.013-.246h1.028l.346-1.678h-1.4V15.763c-.713.171-1.4.344-2.088.5a.293.293,0,0,0-.254.284c-.085.475-.188.947-.287,1.438H7.608v1.673h.946v.274c0,1.188-.008,2.373,0,3.561a1.731,1.731,0,0,0,1.273,1.875,6.422,6.422,0,0,0,2.73-.135V23.367c-.311.035-.594.078-.88.1C11.354,23.481,11.233,23.37,11.195,23.046Z" transform="translate(-7.608 -15.763)" fill="#fff"/>
          </g>
        </g>
        <g id="Group_5186" data-name="Group 5186" transform="translate(15.989 13.876)">
          <g id="Group_5185" data-name="Group 5185">
            <path id="Path_6914" data-name="Path 6914" d="M24.157,13.886l-.019-.01h-.286a.3.3,0,0,0-.047.015,1.324,1.324,0,0,0-.72,2.259,1.3,1.3,0,0,0,.6.335,1.241,1.241,0,0,0,.319.039h0a1.323,1.323,0,0,0,.15-2.638Z" transform="translate(-22.682 -13.876)" fill="#fff"/>
          </g>
        </g>
        <g id="Group_5188" data-name="Group 5188" transform="translate(26.847 17.285)">
          <g id="Group_5187" data-name="Group 5187">
            <path id="Path_6915" data-name="Path 6915" d="M41.378,24.3a.713.713,0,0,1-.626-.915h3.577c-.056-.794-.075-1.551-.176-2.3a2.614,2.614,0,0,0-3-2.374,2.73,2.73,0,0,0-2.834,2.13,6.4,6.4,0,0,0-.007,3.377,2.546,2.546,0,0,0,2.084,1.986,6.609,6.609,0,0,0,2.955-.092c.563-.142.563-.14.563-.72V24.052c-.244.044-.453.082-.663.118A5.845,5.845,0,0,1,41.378,24.3Zm-.564-3.55a.632.632,0,0,1,.153-.316.42.42,0,0,1,.749.153c.091.437.1.89.156,1.358H40.7C40.738,21.539,40.765,21.145,40.815,20.754Z" transform="translate(-38.085 -18.712)" fill="#fff"/>
          </g>
        </g>
        <g id="Group_5190" data-name="Group 5190" transform="translate(19.731 17.281)">
          <g id="Group_5189" data-name="Group 5189">
            <path id="Path_6916" data-name="Path 6916" d="M34.376,21.393a4.482,4.482,0,0,0-.4-1.614,1.673,1.673,0,0,0-1.069-.959,2.513,2.513,0,0,0-2.21.338c-.063.044-.127.087-.221.154-.193-.511-.606-.5-1.033-.467-.063.006-.127,0-.191,0H27.99V28.59c0,.08.006.161.011.24h2.629v-2.6a11.3,11.3,0,0,0,1.131.1,2.3,2.3,0,0,0,2.409-1.81c.016-.053.032-.106.044-.161A8.7,8.7,0,0,0,34.376,21.393ZM31.669,23.87c-.12.58-.464.742-1.046.529V23.91c0-.947.006-1.893,0-2.839a.262.262,0,0,1,.2-.3c.082-.027.162-.062.247-.087.36-.1.594.014.641.383A8.277,8.277,0,0,1,31.669,23.87Z" transform="translate(-27.99 -18.706)" fill="#fff"/>
          </g>
        </g>
      </g>
    </g>
    <g id="Group_5221" data-name="Group 5221" transform="translate(1 -313)">
      <rect id="Rectangle_2380" data-name="Rectangle 2380" width="51" height="33" rx="2" transform="translate(1409 1011)" fill="#00457c"/>
      <g id="paypal-logo" transform="translate(1416 1003.619)">
        <g id="Group_5192" data-name="Group 5192" transform="translate(0 19.055)">
          <g id="Group_5191" data-name="Group 5191" transform="translate(0 0)">
            <path id="Path_6917" data-name="Path 6917" d="M7.179,20.322a1.624,1.624,0,0,0-.6-.643,2.792,2.792,0,0,0-.948-.348,7.747,7.747,0,0,0-1.288-.1l-2.278,0a.571.571,0,0,0-.524.416L.012,26.323a.323.323,0,0,0,.33.415H1.433a.558.558,0,0,0,.524-.415L2.331,24.7a.559.559,0,0,1,.523-.414h.312a5.166,5.166,0,0,0,3.109-.82A2.554,2.554,0,0,0,7.389,21.3,2.029,2.029,0,0,0,7.179,20.322ZM4.826,22.5a2.294,2.294,0,0,1-1.379.362H3.18a.325.325,0,0,1-.331-.416l.328-1.418a.552.552,0,0,1,.52-.414l.358,0A1.746,1.746,0,0,1,5,20.827a.721.721,0,0,1,.315.65A1.181,1.181,0,0,1,4.826,22.5Z" transform="translate(0 -19.229)" fill="#fff"/>
          </g>
        </g>
        <g id="Group_5194" data-name="Group 5194" transform="translate(37.619 18.381)">
          <g id="Group_5193" data-name="Group 5193">
            <path id="Path_6918" data-name="Path 6918" d="M48,19.578l-.068.021-.091.013-.112-.017-.057-.056-.026-.087,0-.131v-.485h.365v-.15h-.365v-.3h-.18v.3h-.122v.15h.122V19.4l.084.28.248.089.1-.009.11-.021v-.16Z" transform="translate(-47.345 -18.381)" fill="#fff"/>
          </g>
        </g>
        <g id="Group_5196" data-name="Group 5196" transform="translate(38.501 18.654)">
          <g id="Group_5195" data-name="Group 5195" transform="translate(0 0)">
            <path id="Path_6919" data-name="Path 6919" d="M49.924,18.831l-.261-.107-.192.039-.2.132-.114-.126-.184-.044-.177.039-.168.108v-.118h-.177v1.061h.176v-.792l.149-.092.148-.037.121.021.06.061.026.1.009.131v.606h.177v-.679l0-.056,0-.052.151-.1.149-.037.117.021.064.061.022.1.012.13v.606h.178v-.689Z" transform="translate(-48.456 -18.724)" fill="#fff"/>
          </g>
        </g>
        <g id="Group_5198" data-name="Group 5198" transform="translate(6.783 20.754)">
          <g id="Group_5197" data-name="Group 5197">
            <path id="Path_6920" data-name="Path 6920" d="M14.194,21.715a4.14,4.14,0,0,0-1.95-.348,8.617,8.617,0,0,0-1.32.1c-.327.05-.358.06-.559.1a.64.64,0,0,0-.48.5l-.133.549c-.075.35.126.337.211.307a5.669,5.669,0,0,1,.652-.192,4.677,4.677,0,0,1,1.022-.137,2.693,2.693,0,0,1,.992.14.5.5,0,0,1,.329.5l-.019.154-.157.1c-.619.039-1.066.1-1.609.175a4.991,4.991,0,0,0-1.383.381,2.15,2.15,0,0,0-.939.741,2.018,2.018,0,0,0-.312,1.141,1.348,1.348,0,0,0,.444,1.036,1.668,1.668,0,0,0,1.15.393,3.137,3.137,0,0,0,.685-.064l.528-.182.447-.248.412-.272.006.008-.041.175,0,.007v0a.324.324,0,0,0,.292.408l0,0h1.013l.014-.006a.564.564,0,0,0,.47-.408l.8-3.443.041-.28.019-.263A1.151,1.151,0,0,0,14.194,21.715Zm-1.759,3.871-.17.224-.429.222a1.528,1.528,0,0,1-.57.123,1.309,1.309,0,0,1-.621-.118l-.211-.409a.818.818,0,0,1,.16-.532l.462-.315a4,4,0,0,1,.719-.162c.249-.031.742-.087.806-.089l.075.133C12.641,24.738,12.5,25.322,12.434,25.586Z" transform="translate(-8.537 -21.367)" fill="#fff"/>
          </g>
        </g>
        <g id="Group_5200" data-name="Group 5200" transform="translate(26.598 20.758)">
          <g id="Group_5199" data-name="Group 5199" transform="translate(0 0)">
            <path id="Path_6921" data-name="Path 6921" d="M39.132,21.721a4.148,4.148,0,0,0-1.949-.349,8.306,8.306,0,0,0-1.319.1c-.327.048-.36.058-.562.1a.638.638,0,0,0-.478.505l-.133.548c-.075.35.122.335.215.307a6.463,6.463,0,0,1,.647-.193,4.879,4.879,0,0,1,1.024-.137,2.679,2.679,0,0,1,.99.141.5.5,0,0,1,.329.5l-.017.153-.156.1c-.625.037-1.073.095-1.611.173a4.992,4.992,0,0,0-1.384.381,2.149,2.149,0,0,0-.939.742,1.993,1.993,0,0,0-.313,1.136,1.333,1.333,0,0,0,.447,1.038,1.669,1.669,0,0,0,1.147.395,3.039,3.039,0,0,0,.684-.064l.527-.18.451-.248.408-.275.007.009-.037.176,0,0,0,0a.319.319,0,0,0,.29.408l0,0h1.012l.017-.006a.558.558,0,0,0,.464-.412l.8-3.438.042-.282.023-.264A1.149,1.149,0,0,0,39.132,21.721Zm-1.755,3.871-.177.226-.425.22a1.545,1.545,0,0,1-.568.123,1.27,1.27,0,0,1-.621-.119l-.213-.408a.853.853,0,0,1,.156-.534A1.118,1.118,0,0,1,36,24.787a4.053,4.053,0,0,1,.718-.161c.248-.031.739-.089.8-.09l.077.133C37.582,24.744,37.441,25.327,37.376,25.592Z" transform="translate(-33.475 -21.372)" fill="#fff"/>
          </g>
        </g>
        <g id="Group_5202" data-name="Group 5202" transform="translate(19.811 19.079)">
          <g id="Group_5201" data-name="Group 5201" transform="translate(0 0)">
            <path id="Path_6922" data-name="Path 6922" d="M32.113,20.352a1.688,1.688,0,0,0-.6-.645,2.678,2.678,0,0,0-.948-.348,7.5,7.5,0,0,0-1.283-.1l-2.281,0a.567.567,0,0,0-.52.415l-1.534,6.679a.323.323,0,0,0,.329.414l1.093,0a.566.566,0,0,0,.524-.413l.369-1.622a.566.566,0,0,1,.524-.414H28.1a5.193,5.193,0,0,0,3.116-.819,2.582,2.582,0,0,0,1.109-2.167A2.128,2.128,0,0,0,32.113,20.352ZM29.76,22.537a2.323,2.323,0,0,1-1.376.358h-.272a.327.327,0,0,1-.334-.416l.331-1.415a.555.555,0,0,1,.521-.414l.354,0a1.766,1.766,0,0,1,.949.211.727.727,0,0,1,.317.65A1.2,1.2,0,0,1,29.76,22.537Z" transform="translate(-24.934 -19.259)" fill="#fff"/>
          </g>
        </g>
        <g id="Group_5204" data-name="Group 5204" transform="translate(33.05 19.138)">
          <g id="Group_5203" data-name="Group 5203">
            <path id="Path_6923" data-name="Path 6923" d="M44.89,19.744a.319.319,0,0,0-.327-.41h-.977a.554.554,0,0,0-.469.331l-.054.084-.049.216-1.366,6.209-.044.191,0,0a.309.309,0,0,0,.274.388l.017.023H42.91a.554.554,0,0,0,.47-.337l.052-.079,1.46-6.62Z" transform="translate(-41.595 -19.334)" fill="#fff"/>
          </g>
        </g>
        <g id="Group_5206" data-name="Group 5206" transform="translate(13.423 20.837)">
          <g id="Group_5205" data-name="Group 5205" transform="translate(0 0)">
            <path id="Path_6924" data-name="Path 6924" d="M23.323,21.472c-.258,0-1.308,0-1.308,0a.946.946,0,0,0-.687.416s-1.562,2.681-1.714,2.95l-.181,0-.486-2.93a.6.6,0,0,0-.594-.427l-.977,0a.323.323,0,0,0-.327.416s.742,4.223.891,5.217c.069.548-.009.646-.009.646l-.966,1.683c-.143.229-.066.416.168.416l1.13,0a.913.913,0,0,0,.684-.415l4.346-7.351S23.712,21.463,23.323,21.472Z" transform="translate(-16.893 -21.472)" fill="#fff"/>
          </g>
        </g>
      </g>
    </g>
    <g id="Group_5220" data-name="Group 5220" transform="translate(-2 -313)">
      <rect id="Rectangle_2381" data-name="Rectangle 2381" width="51" height="33" rx="2" transform="translate(1469 1011)" fill="#26337a"/>
      <g id="visa-pay-logo" transform="translate(1481.189 1007.12)">
        <g id="Group_5208" data-name="Group 5208" transform="translate(9.277 16.69)">
          <g id="Group_5207" data-name="Group 5207" transform="translate(0 0)">
            <path id="Path_6925" data-name="Path 6925" d="M18.071,16.8l-1.349,7.914h2.157l1.35-7.914Z" transform="translate(-16.722 -16.799)" fill="#fff"/>
          </g>
        </g>
        <g id="Group_5210" data-name="Group 5210" transform="translate(2.143 16.697)">
          <g id="Group_5209" data-name="Group 5209">
            <path id="Path_6926" data-name="Path 6926" d="M9.188,16.814l-2.113,5.4L6.85,21.4a8.468,8.468,0,0,0-2.988-3.281l1.932,6.6,2.282,0,3.4-7.9Z" transform="translate(-3.862 -16.812)" fill="#fff"/>
          </g>
        </g>
        <g id="Group_5212" data-name="Group 5212" transform="translate(0 16.622)">
          <g id="Group_5211" data-name="Group 5211">
            <path id="Path_6927" data-name="Path 6927" d="M4.312,17.32a.868.868,0,0,0-.94-.643H.028L0,16.835a6.868,6.868,0,0,1,5.039,3.982Z" transform="translate(0 -16.677)" fill="#e49532"/>
          </g>
        </g>
        <g id="Group_5214" data-name="Group 5214" transform="translate(12.784 16.554)">
          <g id="Group_5213" data-name="Group 5213">
            <path id="Path_6928" data-name="Path 6928" d="M27.415,18.207a3.982,3.982,0,0,1,1.614.3l.195.092.292-1.715a5.568,5.568,0,0,0-1.932-.332c-2.131,0-3.634,1.073-3.645,2.612-.014,1.137,1.07,1.771,1.889,2.15.84.388,1.122.635,1.118.982-.007.53-.67.773-1.29.773a4.528,4.528,0,0,1-2.031-.414l-.278-.126-.3,1.771a6.831,6.831,0,0,0,2.4.422c2.267,0,3.741-1.061,3.756-2.7.009-.9-.566-1.586-1.812-2.149-.754-.367-1.216-.611-1.212-.982C26.179,18.559,26.57,18.207,27.415,18.207Z" transform="translate(-23.043 -16.554)" fill="#fff"/>
          </g>
        </g>
        <g id="Group_5216" data-name="Group 5216" transform="translate(18.792 16.699)">
          <g id="Group_5215" data-name="Group 5215" transform="translate(0 0)">
            <path id="Path_6929" data-name="Path 6929" d="M39.873,16.815H38.207a1.073,1.073,0,0,0-1.13.657l-3.2,7.253h2.265s.369-.975.453-1.189l2.762,0c.064.276.263,1.186.263,1.186h2Zm-2.66,5.1c.178-.454.859-2.212.859-2.212-.012.022.176-.458.287-.756l.145.682.5,2.285Z" transform="translate(-33.874 -16.815)" fill="#fff"/>
          </g>
        </g>
      </g>
    </g>
    <g id="Group_5225" data-name="Group 5225" transform="translate(0 -313)">
      <rect id="Rectangle_2383" data-name="Rectangle 2383" width="51" height="33" rx="2" transform="translate(1581 1011)" fill="#006"/>
      <g id="Group_5218" data-name="Group 5218" transform="translate(1524.5 907.629)">
        <rect id="Rectangle_2384" data-name="Rectangle 2384" width="7.82" height="14.053" transform="translate(78.05 110.282)" fill="#6c6bbd"/>
        <path id="Path_6952" data-name="Path 6952" d="M78.546,117.308a8.922,8.922,0,0,1,3.413-7.027,8.937,8.937,0,1,0,0,14.053,8.922,8.922,0,0,1-3.413-7.026" transform="translate(0 0)" fill="#d32011"/>
        <path id="Path_6953" data-name="Path 6953" d="M264.456,117.308A8.937,8.937,0,0,1,250,124.335a8.938,8.938,0,0,0,0-14.053,8.937,8.937,0,0,1,14.46,7.027" transform="translate(-168.037 0)" fill="#0099df"/>
        <path id="Path_6954" data-name="Path 6954" d="M143.52,352.3a1.1,1.1,0,0,1,.368.065l-.159.486a.837.837,0,0,0-.323-.06c-.338,0-.506.218-.506.61v1.331h-.517V352.36h.511v.288A.7.7,0,0,1,143.52,352.3Zm-1.908.531h-.844V353.9c0,.238.084.4.343.4a.951.951,0,0,0,.456-.134l.149.442a1.211,1.211,0,0,1-.645.184c-.611,0-.824-.328-.824-.879v-1.082h-.482v-.472h.482v-.72h.521v.72h.844Zm-6.608.506a.612.612,0,0,1,.631-.576.589.589,0,0,1,.6.576Zm1.768.209a1.138,1.138,0,0,0-1.127-1.246,1.247,1.247,0,0,0,.035,2.492,1.442,1.442,0,0,0,.973-.332l-.253-.382a1.128,1.128,0,0,1-.69.248.659.659,0,0,1-.71-.581h1.762C136.767,353.68,136.772,353.616,136.772,353.546Zm2.268-.581a1.522,1.522,0,0,0-.739-.2c-.283,0-.452.1-.452.278,0,.159.178.2.4.233l.243.035c.516.075.829.293.829.71,0,.452-.4.774-1.082.774a1.712,1.712,0,0,1-1.028-.308l.243-.4a1.266,1.266,0,0,0,.79.248c.352,0,.541-.1.541-.288,0-.134-.134-.209-.417-.248l-.243-.035c-.531-.075-.819-.313-.819-.7,0-.472.388-.76.988-.76a1.773,1.773,0,0,1,.968.248Zm6.367-.175a.783.783,0,0,0-.3.056.712.712,0,0,0-.236.157.726.726,0,0,0-.157.242.871.871,0,0,0,0,.619.727.727,0,0,0,.157.241.71.71,0,0,0,.236.157.815.815,0,0,0,.592,0,.708.708,0,0,0,.238-.157.723.723,0,0,0,.159-.241.872.872,0,0,0,0-.619.723.723,0,0,0-.159-.242.711.711,0,0,0-.238-.157A.78.78,0,0,0,145.407,352.791Zm0-.49a1.335,1.335,0,0,1,.511.1,1.24,1.24,0,0,1,.407.264,1.206,1.206,0,0,1,.269.4,1.323,1.323,0,0,1,0,1,1.208,1.208,0,0,1-.269.4,1.249,1.249,0,0,1-.407.264,1.418,1.418,0,0,1-1.023,0,1.208,1.208,0,0,1-.673-.661,1.324,1.324,0,0,1,0-1,1.209,1.209,0,0,1,.673-.66A1.336,1.336,0,0,1,145.407,352.3Zm-13.419,1.246a.719.719,0,1,1,.72.759A.712.712,0,0,1,131.988,353.546Zm1.921,0V352.36h-.516v.288a.9.9,0,0,0-.75-.348,1.248,1.248,0,0,0,0,2.492.9.9,0,0,0,.75-.348v.288h.516ZM131,354.733v-1.489a.883.883,0,0,0-.933-.943.918.918,0,0,0-.834.422.872.872,0,0,0-.785-.422.785.785,0,0,0-.695.352v-.293h-.516v2.373h.521v-1.315a.555.555,0,0,1,.581-.631c.343,0,.516.223.516.626v1.32h.521v-1.315a.56.56,0,0,1,.581-.631c.353,0,.522.223.522.626v1.32Z" transform="translate(-55.005 -223.995)" fill="#fff"/>
      </g>
    </g>
    <g id="Group_5224" data-name="Group 5224" transform="translate(-2 -313)">
      <rect id="Rectangle_2382" data-name="Rectangle 2382" width="51" height="33" rx="2" transform="translate(1526 1011)" fill="#006"/>
      <g id="Group_5219" data-name="Group 5219" transform="translate(1818 1068.999)">
        <path id="Path_6955" data-name="Path 6955" d="M-257.724,189.753a.717.717,0,0,1,.72-.77.718.718,0,0,1,.72.77.732.732,0,0,1-.72.77.731.731,0,0,1-.72-.77Zm1.936,0v-1.192h-.521v.3a.9.9,0,0,0-.745-.348,1.189,1.189,0,0,0-1.192,1.241,1.189,1.189,0,0,0,1.192,1.241.836.836,0,0,0,.745-.348v.3h.521v-1.192Zm17.428,0a.717.717,0,0,1,.72-.77.718.718,0,0,1,.72.77.732.732,0,0,1-.72.77.731.731,0,0,1-.72-.77Zm1.912,0v-2.135h-.521v1.241a.9.9,0,0,0-.745-.348,1.189,1.189,0,0,0-1.192,1.241,1.189,1.189,0,0,0,1.192,1.241.836.836,0,0,0,.745-.348v.3h.521v-1.192Zm-12.934-.795a.581.581,0,0,1,.6.571h-1.241a.629.629,0,0,1,.645-.571Zm0-.447a1.161,1.161,0,0,0-1.192,1.241,1.166,1.166,0,0,0,1.216,1.241,1.518,1.518,0,0,0,.968-.323l-.248-.372a1.186,1.186,0,0,1-.7.248.67.67,0,0,1-.72-.571h1.763v-.2a1.1,1.1,0,0,0-1.092-1.266Zm6.231,1.241a.717.717,0,0,1,.72-.77.718.718,0,0,1,.72.77.732.732,0,0,1-.72.77.731.731,0,0,1-.72-.77Zm1.912,0v-1.192h-.521v.3a.9.9,0,0,0-.745-.348,1.189,1.189,0,0,0-1.192,1.241,1.189,1.189,0,0,0,1.192,1.241.835.835,0,0,0,.745-.348v.3h.521v-1.192Zm-4.816,0a1.193,1.193,0,0,0,1.266,1.241,1.235,1.235,0,0,0,.844-.273l-.248-.422a1,1,0,0,1-.621.223.7.7,0,0,1-.72-.77.732.732,0,0,1,.72-.77,1,1,0,0,1,.621.223l.248-.422a1.236,1.236,0,0,0-.844-.273,1.193,1.193,0,0,0-1.266,1.241Zm6.653-1.241a.7.7,0,0,0-.621.348v-.3h-.521v2.383h.521V189.6c0-.4.174-.621.5-.621a1.45,1.45,0,0,1,.323.05l.149-.5a1.634,1.634,0,0,0-.348-.025Zm-13.853.248a1.7,1.7,0,0,0-.968-.248c-.6,0-.993.3-.993.77,0,.4.3.621.819.7l.248.025c.273.05.422.124.422.248,0,.174-.2.3-.546.3a1.371,1.371,0,0,1-.794-.248l-.248.4a1.757,1.757,0,0,0,1.018.3c.7,0,1.092-.323,1.092-.77,0-.422-.323-.645-.819-.72l-.248-.025c-.223-.025-.4-.074-.4-.223,0-.174.174-.273.447-.273a1.79,1.79,0,0,1,.745.2l.223-.422Zm6.678-.248a.7.7,0,0,0-.621.348v-.3h-.521v2.383h.521V189.6c0-.4.174-.621.5-.621a1.449,1.449,0,0,1,.323.05l.149-.5a1.634,1.634,0,0,0-.348-.025Zm-4.419.05h-.844v-.72h-.521v.72h-.472v.472h.472v1.092c0,.546.223.869.819.869a1.388,1.388,0,0,0,.645-.174l-.149-.447a.818.818,0,0,1-.447.124c-.248,0-.348-.149-.348-.4v-1.068H-251v-.472Zm-7.721,2.383v-1.49a.874.874,0,0,0-.943-.943.979.979,0,0,0-.844.422.868.868,0,0,0-.794-.422.8.8,0,0,0-.7.348v-.3h-.521v2.383h.521v-1.316c0-.422.223-.621.571-.621s.521.223.521.621v1.316h.521v-1.316a.549.549,0,0,1,.571-.621c.348,0,.521.223.521.621v1.316Z" transform="translate(-17.02 -221.551)" fill="#fff"/>
        <path id="Path_6956" data-name="Path 6956" d="M-147.845-28.875h7.82v14.051h-7.82V-28.875Z" transform="translate(-122.604 -22.212)" fill="#ff3b00"/>
        <path id="Path_6957" data-name="Path 6957" d="M-269.953-44.062a8.961,8.961,0,0,1,3.4-7.026A8.882,8.882,0,0,0-272.063-53,8.932,8.932,0,0,0-281-44.062a8.932,8.932,0,0,0,8.937,8.937,8.882,8.882,0,0,0,5.511-1.911,8.924,8.924,0,0,1-3.4-7.026Z" fill="#fc0001"/>
        <path id="Path_6958" data-name="Path 6958" d="M-83.894-44.062a8.932,8.932,0,0,1-8.937,8.937,8.882,8.882,0,0,1-5.511-1.911,8.887,8.887,0,0,0,3.4-7.026,8.961,8.961,0,0,0-3.4-7.026A8.882,8.882,0,0,1-92.832-53a8.947,8.947,0,0,1,8.937,8.937Z" transform="translate(-168.184)" fill="#fd8f04"/>
      </g>
    </g>
  </g>
</svg>
