<svg id="Layer_1" data-name="Layer 1" xmlns="http://www.w3.org/2000/svg" viewBox="0 0 372.16 136.61"><title>logo</title><path d="M69,76.49Q69,87.94,60.41,94T37.23,100.1q-11.29,0-19.34-4A32.33,32.33,0,0,1,5.22,85.33L0,91.27q12.75,15.36,35.64,15.35a61.57,61.57,0,0,0,16.44-2.1,40.6,40.6,0,0,0,13.18-6.15A28.45,28.45,0,0,0,74,88.22a30.14,30.14,0,0,0,3.11-13.9,24.07,24.07,0,0,0-.28-3.7h-9A14.5,14.5,0,0,1,69,76.49Z"/><path d="M69.1,58.89a34.74,34.74,0,0,0-9.2-4.49Q54.47,52.58,48,51,41.88,49.55,37.3,48.1a34.14,34.14,0,0,1-7.6-3.34,13.11,13.11,0,0,1-4.57-4.49,12.46,12.46,0,0,1-1.52-6.37A26.8,26.8,0,0,1,25.42,24a19.89,19.89,0,0,1,5.73-7.9,28.92,28.92,0,0,1,9.92-5.29A47.56,47.56,0,0,1,55.63,8.84Q73,8.84,80,20L85,14.2A28.42,28.42,0,0,0,73.52,5.14a41.34,41.34,0,0,0-16.44-3A56.31,56.31,0,0,0,40.64,4.49a39.67,39.67,0,0,0-13.12,6.66A31.63,31.63,0,0,0,18.83,21.8a31.24,31.24,0,0,0-3.18,14.27,17.2,17.2,0,0,0,1.81,8.19,16.24,16.24,0,0,0,5.28,5.79,35.44,35.44,0,0,0,8.48,4.13,104.33,104.33,0,0,0,11.52,3.19q12.3,2.79,19,6.75h12.5A20.19,20.19,0,0,0,69.1,58.89Z"/><path d="M105.9,55.92a20.41,20.41,0,0,1,4.71-7.68,44.54,44.54,0,0,1,7.6-6.45,42,42,0,0,1,8.69-4.49,24,24,0,0,1,8.26-1.66,19.59,19.59,0,0,1,9.13,2.1,21.52,21.52,0,0,1,7,5.72,27.07,27.07,0,0,1,4.49,8.4A32,32,0,0,1,157.33,62c0,.71,0,1.41-.08,2.12h7.49c.07-1,.12-2.08.12-3.13a40.28,40.28,0,0,0-1.81-12,32.46,32.46,0,0,0-5.22-10.22,25.14,25.14,0,0,0-8.4-7,24.19,24.19,0,0,0-11.37-2.61,33.46,33.46,0,0,0-16.44,4.56,48.84,48.84,0,0,0-14.13,11.81l3.19-15.07h-6.52L97,64.12h7.13Z"/><path d="M154.57,75.84A42.85,42.85,0,0,1,147,88.22a40.41,40.41,0,0,1-11.08,9,27.4,27.4,0,0,1-13.4,3.47,20.45,20.45,0,0,1-14.42-5.79,26.3,26.3,0,0,1-4.78-6.38,28.6,28.6,0,0,1-2.82-7.82l2.18-10.07H95.6l-14,66H88.8l10-47.08a29.74,29.74,0,0,0,8.84,12.53q6.08,5.14,15.21,5.14a35.24,35.24,0,0,0,16.22-3.91,44.54,44.54,0,0,0,13.4-10.43A51.12,51.12,0,0,0,161.53,78a48.28,48.28,0,0,0,2.27-7.39h-7.54A39.11,39.11,0,0,1,154.57,75.84Z"/><polygon points="204.26 0 197.02 0 183.44 64.12 190.66 64.12 204.26 0"/><path d="M177.32,93a17.5,17.5,0,0,0-.44,3.62,9.73,9.73,0,0,0,2.75,7.31q2.76,2.69,7.68,2.68a36.05,36.05,0,0,0,6.16-.65,30.53,30.53,0,0,0,6.16-1.66v-5.8a20.31,20.31,0,0,1-4.06,1.09,23.57,23.57,0,0,1-3.77.36,7.32,7.32,0,0,1-5.28-1.74,6.31,6.31,0,0,1-1.82-4.78,10.07,10.07,0,0,1,.08-1.3c0-.39.12-.82.21-1.31l4.29-20.21h-7.22Z"/><polygon points="211.21 105.75 218.46 105.75 225.89 70.62 218.65 70.62 211.21 105.75"/><polygon points="240.91 0 233.67 0 230.92 13.33 238.16 13.33 240.91 0"/><polygon points="234.39 30.42 227.15 30.42 220.02 64.12 227.27 64.12 234.39 30.42"/><polygon points="266.26 36.36 282.92 36.36 284.23 30.42 267.57 30.42 272.93 4.64 265.68 4.64 260.32 30.42 250.18 30.42 248.88 36.36 259.02 36.36 253.07 64.12 260.35 64.12 266.26 36.36"/><path d="M246.85,93.15c-.1.58-.17,1.14-.22,1.67s-.07,1-.07,1.52q0,5.07,3.33,7.68a13.27,13.27,0,0,0,8.41,2.6,29.45,29.45,0,0,0,5.5-.5,31.52,31.52,0,0,0,4.78-1.31c1.45-.53,2.68-1,3.69-1.52a13.57,13.57,0,0,0,2.11-1.16l-.87-5.79a12.27,12.27,0,0,1-1.53.79c-.72.34-1.61.73-2.67,1.16a21.81,21.81,0,0,1-3.55,1.09,19,19,0,0,1-4.13.43,8,8,0,0,1-5.15-1.66,6,6,0,0,1-2.1-5,39.13,39.13,0,0,1,1-5.79L259,70.62h-7.28Z"/><polygon points="323.34 0 307.41 0 303.78 17.53 319.72 17.53 323.34 0"/><polygon points="317.11 29.99 301.18 29.99 293.87 64.12 309.8 64.12 317.11 29.99"/><polygon points="284.95 105.75 300.89 105.75 308.41 70.62 292.48 70.62 284.95 105.75"/><path d="M348,70.62h-16l-4.08,19a19.49,19.49,0,0,0-.58,4.78q0,6.52,4.2,9.49a17.6,17.6,0,0,0,10.43,3,42.5,42.5,0,0,0,11.44-1.52,34.81,34.81,0,0,0,8.84-3.55l-.58-12.6q-1.59.72-4.64,1.88a17.55,17.55,0,0,1-6.37,1.16,6.8,6.8,0,0,1-4.2-1.3,4.91,4.91,0,0,1-1.74-4.2,12.54,12.54,0,0,1,.29-2.18Z"/><polygon points="354.05 42.3 369.55 42.3 372.16 29.99 356.51 29.99 361.88 5.07 345.94 5.07 340.58 29.99 331.16 29.99 328.41 42.3 338.12 42.3 333.45 64.12 349.42 64.12 354.05 42.3"/><path d="M69,76.49Q69,87.94,60.41,94T37.23,100.1q-11.29,0-19.34-4A32.33,32.33,0,0,1,5.22,85.33L0,91.27q12.75,15.36,35.64,15.35a61.57,61.57,0,0,0,16.44-2.1,40.6,40.6,0,0,0,13.18-6.15A28.45,28.45,0,0,0,74,88.22a30.14,30.14,0,0,0,3.11-13.9,24.07,24.07,0,0,0-.28-3.7h-9A14.5,14.5,0,0,1,69,76.49Z"/><path d="M69.1,58.89a34.74,34.74,0,0,0-9.2-4.49Q54.47,52.58,48,51,41.88,49.55,37.3,48.1a34.14,34.14,0,0,1-7.6-3.34,13.11,13.11,0,0,1-4.57-4.49,12.46,12.46,0,0,1-1.52-6.37A26.8,26.8,0,0,1,25.42,24a19.89,19.89,0,0,1,5.73-7.9,28.92,28.92,0,0,1,9.92-5.29A47.56,47.56,0,0,1,55.63,8.84Q73,8.84,80,20L85,14.2A28.42,28.42,0,0,0,73.52,5.14a41.34,41.34,0,0,0-16.44-3A56.31,56.31,0,0,0,40.64,4.49a39.67,39.67,0,0,0-13.12,6.66A31.63,31.63,0,0,0,18.83,21.8a31.24,31.24,0,0,0-3.18,14.27,17.2,17.2,0,0,0,1.81,8.19,16.24,16.24,0,0,0,5.28,5.79,35.44,35.44,0,0,0,8.48,4.13,104.33,104.33,0,0,0,11.52,3.19q12.3,2.79,19,6.75h12.5A20.19,20.19,0,0,0,69.1,58.89Z"/><path d="M105.9,55.92a20.41,20.41,0,0,1,4.71-7.68,44.54,44.54,0,0,1,7.6-6.45,42,42,0,0,1,8.69-4.49,24,24,0,0,1,8.26-1.66,19.59,19.59,0,0,1,9.13,2.1,21.52,21.52,0,0,1,7,5.72,27.07,27.07,0,0,1,4.49,8.4A32,32,0,0,1,157.33,62c0,.71,0,1.41-.08,2.12h7.49c.07-1,.12-2.08.12-3.13a40.28,40.28,0,0,0-1.81-12,32.46,32.46,0,0,0-5.22-10.22,25.14,25.14,0,0,0-8.4-7,24.19,24.19,0,0,0-11.37-2.61,33.46,33.46,0,0,0-16.44,4.56,48.84,48.84,0,0,0-14.13,11.81l3.19-15.07h-6.52L97,64.12h7.13Z"/><path d="M154.57,75.84A42.85,42.85,0,0,1,147,88.22a40.41,40.41,0,0,1-11.08,9,27.4,27.4,0,0,1-13.4,3.47,20.45,20.45,0,0,1-14.42-5.79,26.3,26.3,0,0,1-4.78-6.38,28.6,28.6,0,0,1-2.82-7.82l2.18-10.07H95.6l-14,66H88.8l10-47.08a29.74,29.74,0,0,0,8.84,12.53q6.08,5.14,15.21,5.14a35.24,35.24,0,0,0,16.22-3.91,44.54,44.54,0,0,0,13.4-10.43A51.12,51.12,0,0,0,161.53,78a48.28,48.28,0,0,0,2.27-7.39h-7.54A39.11,39.11,0,0,1,154.57,75.84Z"/><polygon points="204.26 0 197.02 0 183.44 64.12 190.66 64.12 204.26 0"/><path d="M177.32,93a17.5,17.5,0,0,0-.44,3.62,9.73,9.73,0,0,0,2.75,7.31q2.76,2.69,7.68,2.68a36.05,36.05,0,0,0,6.16-.65,30.53,30.53,0,0,0,6.16-1.66v-5.8a20.31,20.31,0,0,1-4.06,1.09,23.57,23.57,0,0,1-3.77.36,7.32,7.32,0,0,1-5.28-1.74,6.31,6.31,0,0,1-1.82-4.78,10.07,10.07,0,0,1,.08-1.3c0-.39.12-.82.21-1.31l4.29-20.21h-7.22Z"/><polygon points="211.21 105.75 218.46 105.75 225.89 70.62 218.65 70.62 211.21 105.75"/><polygon points="240.91 0 233.67 0 230.92 13.33 238.16 13.33 240.91 0"/><polygon points="234.39 30.42 227.15 30.42 220.02 64.12 227.27 64.12 234.39 30.42"/><polygon points="266.26 36.36 282.92 36.36 284.23 30.42 267.57 30.42 272.93 4.64 265.68 4.64 260.32 30.42 250.18 30.42 248.88 36.36 259.02 36.36 253.07 64.12 260.35 64.12 266.26 36.36"/><path d="M246.85,93.15c-.1.58-.17,1.14-.22,1.67s-.07,1-.07,1.52q0,5.07,3.33,7.68a13.27,13.27,0,0,0,8.41,2.6,29.45,29.45,0,0,0,5.5-.5,31.52,31.52,0,0,0,4.78-1.31c1.45-.53,2.68-1,3.69-1.52a13.57,13.57,0,0,0,2.11-1.16l-.87-5.79a12.27,12.27,0,0,1-1.53.79c-.72.34-1.61.73-2.67,1.16a21.81,21.81,0,0,1-3.55,1.09,19,19,0,0,1-4.13.43,8,8,0,0,1-5.15-1.66,6,6,0,0,1-2.1-5,39.13,39.13,0,0,1,1-5.79L259,70.62h-7.28Z"/><polygon points="323.34 0 307.41 0 303.78 17.53 319.72 17.53 323.34 0"/><polygon points="317.11 29.99 301.18 29.99 293.87 64.12 309.8 64.12 317.11 29.99"/><polygon points="284.95 105.75 300.89 105.75 308.41 70.62 292.48 70.62 284.95 105.75"/><path d="M348,70.62h-16l-4.08,19a19.49,19.49,0,0,0-.58,4.78q0,6.52,4.2,9.49a17.6,17.6,0,0,0,10.43,3,42.5,42.5,0,0,0,11.44-1.52,34.81,34.81,0,0,0,8.84-3.55l-.58-12.6q-1.59.72-4.64,1.88a17.55,17.55,0,0,1-6.37,1.16,6.8,6.8,0,0,1-4.2-1.3,4.91,4.91,0,0,1-1.74-4.2,12.54,12.54,0,0,1,.29-2.18Z"/><polygon points="354.05 42.3 369.55 42.3 372.16 29.99 356.51 29.99 361.88 5.07 345.94 5.07 340.58 29.99 331.16 29.99 328.41 42.3 338.12 42.3 333.45 64.12 349.42 64.12 354.05 42.3"/></svg>