<svg xmlns="http://www.w3.org/2000/svg" width="29.806" height="24.217" viewBox="0 0 29.806 24.217">
  <g id="twitter_1_" data-name="twitter (1)" transform="translate(0 -48)">
    <g id="Group_5226" data-name="Group 5226" transform="translate(0 48)">
      <path id="Path_6963" data-name="Path 6963" d="M29.806,50.867a12.74,12.74,0,0,1-3.521.965,6.076,6.076,0,0,0,2.688-3.377A12.211,12.211,0,0,1,25.1,49.934a6.11,6.11,0,0,0-10.57,4.178,6.292,6.292,0,0,0,.142,1.393A17.3,17.3,0,0,1,2.075,49.114a6.112,6.112,0,0,0,1.878,8.167,6.035,6.035,0,0,1-2.761-.753V56.6a6.139,6.139,0,0,0,4.9,6,6.1,6.1,0,0,1-1.6.2,5.4,5.4,0,0,1-1.157-.1,6.169,6.169,0,0,0,5.71,4.257,12.278,12.278,0,0,1-7.576,2.606A11.444,11.444,0,0,1,0,69.475a17.2,17.2,0,0,0,9.374,2.742c11.244,0,17.392-9.314,17.392-17.388,0-.27-.009-.531-.022-.79A12.19,12.19,0,0,0,29.806,50.867Z" transform="translate(0 -48)"/>
    </g>
  </g>
</svg>
 