<svg xmlns="http://www.w3.org/2000/svg" width="19.954" height="12.718" viewBox="0 0 19.954 12.718">
  <g id="view" transform="translate(0 -92.835)">
    <g id="Group_500" data-name="Group 500" transform="translate(0 92.835)">
      <g id="Group_499" data-name="Group 499" transform="translate(0 0)">
        <path id="Path_229" data-name="Path 229" d="M19.827,98.806c-.178-.244-4.426-5.971-9.85-5.971S.3,98.562.127,98.806a.658.658,0,0,0,0,.776c.178.244,4.426,5.971,9.85,5.971s9.672-5.727,9.85-5.971A.658.658,0,0,0,19.827,98.806Zm-9.85,5.431c-4,0-7.457-3.8-8.481-5.044,1.023-1.244,4.477-5.043,8.481-5.043s7.456,3.8,8.481,5.044C17.435,100.438,13.981,104.237,9.977,104.237Z" transform="translate(0 -92.835)" fill="#13344b"/>
      </g>
    </g>
    <g id="Group_502" data-name="Group 502" transform="translate(6.03 95.247)">
      <g id="Group_501" data-name="Group 501" transform="translate(0 0)">
        <path id="Path_230" data-name="Path 230" d="M158.669,154.725a3.947,3.947,0,1,0,3.947,3.947A3.951,3.951,0,0,0,158.669,154.725Zm0,6.578a2.631,2.631,0,1,1,2.631-2.631A2.634,2.634,0,0,1,158.669,161.3Z" transform="translate(-154.722 -154.725)" fill="#13344b"/>
      </g>
    </g>
  </g>
</svg>
 