<svg xmlns="http://www.w3.org/2000/svg" width="28.215" height="19.755" viewBox="0 0 28.215 19.755">
  <path id="youtube" d="M27.633-2.991a3.535,3.535,0,0,0-2.487-2.487c-2.208-.6-11.04-.6-11.04-.6s-8.831,0-11.039.581A3.606,3.606,0,0,0,.581-2.991,37.246,37.246,0,0,0,0,3.8a37.109,37.109,0,0,0,.581,6.786,3.535,3.535,0,0,0,2.487,2.487c2.231.6,11.04.6,11.04.6s8.831,0,11.039-.581A3.535,3.535,0,0,0,27.634,10.6a37.257,37.257,0,0,0,.581-6.786A35.356,35.356,0,0,0,27.633-2.991ZM11.3,8.025V-.434L18.639,3.8Zm0,0" transform="translate(0 6.082)"/>
</svg>
 